<svg width="19" height="25" viewBox="0 0 19 25" fill="none" xmlns="http://www.w3.org/2000/svg">
<path d="M4.35036 9.28558C5.42857 12.8297 7.7587 15.5462 10.7146 17.788L12.441 16.518C12.8061 16.2628 13.2839 16.2408 13.6616 16.4499C14.8729 17.1029 16.2222 17.579 17.6467 17.8314C18.2785 17.9433 18.7039 18.5519 18.5919 19.1837L17.8815 23.1929C17.7696 23.8247 17.1611 24.2501 16.5292 24.1381C5.74224 22.2269 -1.45098 11.9358 0.460277 1.14877C0.572225 0.516948 1.18077 0.0915937 1.81259 0.203542L5.8333 0.915937C6.46513 1.02789 6.89048 1.63643 6.77853 2.26825C6.52411 3.70422 6.50961 5.12346 6.70669 6.4854C6.76182 6.90986 6.59053 7.34159 6.21189 7.60626L4.35036 9.28558Z" fill="black"/>
</svg>
